<svg xmlns="http://www.w3.org/2000/svg" width="417" height="418" viewBox="0 0 417 418">
  <defs>
    <style>
      .cls-1 {
        fill: #cfa76a;
        fill-rule: evenodd;
      }
    </style>
  </defs>
  <path id="icon.svg" class="cls-1" d="M205.226,0.031c9.671-.318,15.7,2.472,17.954,9,4.024,5.2,1.3,13.32,3.168,21,2.713,11.133,5.434,22.629,10.561,32,15.692,28.67,45.841,55.313,80.265,66,9.6,2.977,41.005,8.634,52.806,4,6.489-2.548,9.223-8.563,13.729-13,0.418-11.556,3.515-16.566-1.056-23-2.337-6.4-9.055-8.784-13.729-13-15.73-.637-25.737.174-32.74,10-5.951,8.35-3.107,17.7-16.9,19-5.109-3.618-13.437-3.777-15.841-10-8.8-10.916,15.3-34.269,22.178-39a59.12,59.12,0,0,1,83.433,16c24.41,37.38-5.331,75.233-39.076,83.994-16.5,4.285-34.1-3.358-48.581-1v2c-5.724,7.627-3.821,20.5-6.337,31-8.918,37.227-.866,93.456,12.673,119.991,5.455,10.69,14.4,18.794,14.786,34-2.928,2.931-4.858,7.8-8.449,10-3.779,2.319-34.747,11.489-35.908,11-10.915-3.41-19.782-14.032-27.459-21l1.056-3c8.748-3.347,22.639-9.114,25.347-11s0.557-3.217-1.056-7c-4.718-6.538-8.913-20.8-12.674-32-6.478-19.286-8.19-61.364-7.873-70.305,0.585-16.524.944-30.782,4.7-44.686,2.91-10.759,6.3-20.361,6.337-34-21.115-6.385-44.745-28.05-59.143-42-6.6-6.394-8.636-19.386-21.122-20a160.579,160.579,0,0,1-46.469,47c-8.413,5.589-24.775,14.634-27.459,17-1.383,1.219,1.238,6.975,2.112,12,2.2,8.84,5.464,25.453,6.337,37,2.425,32.069,1.588,75.842-7.393,101.993-4.071,11.854-11.286,21.242-11.617,36,20.386,8.455,40.734,16.314,59.142,27,10.918,6.336,16.138,14.7,33.8,15,4.241-4.967,6.559-4.853,6.337-15-8.452-5.776-13.412-18.494-19.01-27-19.351-29.393-41-78.153-25.347-124.991a158.364,158.364,0,0,1,22.178-42c5.347-7.18,12.835-16.027,16.9-21,2.353-2.987,2.482-1.355,4.225,1a196.764,196.764,0,0,1,19.01,34c11.825,27.524,5.182,52.072-1.056,77.994h-1.057c-0.877-22.288-2.347-43.168-9.5-59-3.259-7.208-8.662-18.572-10.561-20-2.065-1.552-1.868-.225-4.224,3-1.652,1.885-12.376,21.4-15.842,34-13.659,49.649,23.033,98.442,43.3,123.991,8.617,10.862,22.321,20.585,32.739,30,3.042,2.748,5.683,2.7,7.393,7-7.3,1.051-12.638,5.925-17.954,9-7.469,4.32-14.893,6.618-22.178,11-11.138,6.7-16.938,17.535-34.852,18a386.138,386.138,0,0,0-79.209-45c-11.442-4.745-37.718-9.566-45.412-17-1.906-1.841-2.374-5.138-4.225-7-0.513-12.713,6.98-19.095,11.617-29,6-12.808,10.293-27,14.786-41q0.528-6.5,1.056-13c8.112-32.656.634-73.009-6.337-103.992H81.661c-11.49,7.312-37.643-.178-45.413-4C4.4,142.358-10.18,108.34,10.9,77.026c9.062-13.461,25.7-21.55,44.357-26,8.2-1.954,17.111,2.181,22.178,4,19.494,7,43.829,25.39,38.02,49-5.946,3.246-11.554,7.249-20.066,8-1.767-1.619-3.49-2.3-6.337-3-1.617-10.683-10.242-25.032-22.178-26-10.806-7.036-28.6,7.091-30.627,13-8.233,10.115,1.229,26.335,6.337,31,17.307,15.8,68.715-1.116,82.377-9,25.772-14.871,49.055-37.422,61.255-64.995,3.212-7.259,4.512-16.192,6.337-24,1.465-6.27-1.021-12.769,1.056-18C195.75,5.638,201.284,3.7,205.226.031Z" transform="translate(-1)"/>
</svg>
