<svg xmlns="http://www.w3.org/2000/svg" width="124.982" height="124.982" viewBox="0 0 418 418">
  <defs>
    <style>
      .cls-1 {
        fill: #cfa76a;
        fill-rule: evenodd;
      }
    </style>
  </defs>
  <path id="icon.svg" class="cls-1" d="M204.716,0.031c9.694-.318,15.741,2.472,18,9,4.034,5.2,1.3,13.32,3.176,21,2.719,11.133,5.446,22.629,10.586,32,15.729,28.67,45.951,55.313,80.457,66,9.619,2.977,41.1,8.634,52.933,4,6.5-2.548,9.245-8.563,13.762-13,0.419-11.556,3.523-16.566-1.059-23-2.342-6.4-9.077-8.784-13.762-13-15.767-.637-25.8.174-32.818,10-5.965,8.35-3.115,17.7-16.938,19-5.122-3.618-13.47-3.777-15.88-10-8.821-10.916,15.334-34.269,22.231-39a59.349,59.349,0,0,1,83.634,16c24.469,37.38-5.345,75.233-39.17,83.994-16.543,4.285-34.179-3.358-48.7-1v2c-5.738,7.627-3.83,20.5-6.352,31-8.939,37.227-.868,93.456,12.7,119.991,5.468,10.69,14.433,18.794,14.821,34-2.935,2.931-4.87,7.8-8.469,10-3.788,2.319-34.831,11.489-35.994,11-10.942-3.41-19.83-14.032-27.525-21l1.059-3c8.768-3.347,22.692-9.114,25.407-11s0.559-3.217-1.059-7c-4.728-6.538-8.934-20.8-12.7-32-6.494-19.286-8.21-61.364-7.893-70.305,0.587-16.524.947-30.782,4.717-44.686,2.917-10.759,6.311-20.361,6.352-34-21.166-6.385-44.853-28.05-59.285-42-6.616-6.394-8.657-19.386-21.173-20a160.763,160.763,0,0,1-46.58,47c-8.434,5.589-24.834,14.634-27.525,17-1.387,1.219,1.241,6.975,2.117,12,2.2,8.84,5.477,25.453,6.352,37,2.431,32.069,1.592,75.842-7.41,101.993-4.081,11.854-11.313,21.242-11.645,36,20.435,8.455,40.831,16.314,59.284,27,10.944,6.336,16.176,14.7,33.877,15,4.25-4.967,6.574-4.853,6.351-15-8.472-5.776-13.443-18.494-19.055-27-19.4-29.393-41.1-78.153-25.408-124.991a158.217,158.217,0,0,1,22.232-42c5.36-7.18,12.865-16.027,16.938-21,2.358-2.987,2.488-1.355,4.235,1a196.611,196.611,0,0,1,19.055,34c11.855,27.524,5.195,52.072-1.058,77.994h-1.059c-0.879-22.288-2.353-43.168-9.528-59-3.267-7.208-8.683-18.572-10.586-20-2.071-1.552-1.873-.225-4.235,3-1.655,1.885-12.406,21.4-15.879,34-13.692,49.649,23.088,98.442,43.4,123.991,8.638,10.862,22.375,20.585,32.818,30,3.049,2.748,5.7,2.7,7.411,7-7.319,1.051-12.669,5.925-18,9-7.488,4.32-14.929,6.618-22.232,11-11.165,6.7-16.978,17.535-34.935,18a387.332,387.332,0,0,0-79.4-45c-11.47-4.745-37.809-9.566-45.521-17-1.911-1.841-2.379-5.138-4.235-7-0.514-12.713,7-19.095,11.645-29,6.012-12.808,10.318-27,14.821-41l1.059-13c8.131-32.656.636-73.009-6.352-103.992H80.854c-11.517,7.312-37.733-.178-45.522-4C3.41,142.358-11.207,108.34,9.925,77.026c9.084-13.461,25.758-21.55,44.463-26,8.22-1.954,17.152,2.181,22.232,4,19.541,7,43.933,25.39,38.111,49-5.96,3.246-11.582,7.249-20.114,8-1.771-1.619-3.5-2.3-6.352-3C86.644,98.34,78,83.991,66.033,83.025c-10.832-7.036-28.668,7.091-30.7,13-8.253,10.115,1.232,26.335,6.352,31,17.349,15.8,68.879-1.116,82.575-9,25.833-14.871,49.172-37.422,61.4-64.995,3.22-7.259,4.523-16.192,6.352-24,1.469-6.27-1.023-12.769,1.059-18C195.217,5.638,200.764,3.7,204.716.031Z"/>
</svg>
